Roman_opsz10_wght700.ufo
<glyph name="numbersign" format="2">
  <advance width="958"/>
  <unicode hex="0023"/>
  <outline>
    <contour>
      <point x="594" y="108" type="line"/>
      <point x="847" y="108" type="line" smooth="yes"/>
      <point x="862" y="108"/>
      <point x="893" y="108"/>
      <point x="893" y="139" type="curve" smooth="yes"/>
      <point x="893" y="169"/>
      <point x="864" y="169"/>
      <point x="852" y="169" type="curve" smooth="yes"/>
      <point x="614" y="169" type="line"/>
      <point x="663" y="332" type="line"/>
      <point x="852" y="332" type="line" smooth="yes"/>
      <point x="864" y="332"/>
      <point x="893" y="332"/>
      <point x="893" y="362" type="curve" smooth="yes"/>
      <point x="893" y="393"/>
      <point x="862" y="393"/>
      <point x="847" y="393" type="curve" smooth="yes"/>
      <point x="683" y="393" type="line"/>
      <point x="761" y="644" type="line" smooth="yes"/>
      <point x="765" y="656"/>
      <point x="765" y="657"/>
      <point x="765" y="664" type="curve" smooth="yes"/>
      <point x="765" y="679"/>
      <point x="753" y="694"/>
      <point x="734" y="694" type="curve" smooth="yes"/>
      <point x="712" y="694"/>
      <point x="707" y="677"/>
      <point x="703" y="664" type="curve" smooth="yes"/>
      <point x="619" y="393" type="line"/>
      <point x="427" y="393" type="line"/>
      <point x="505" y="644" type="line" smooth="yes"/>
      <point x="509" y="656"/>
      <point x="509" y="657"/>
      <point x="509" y="664" type="curve" smooth="yes"/>
      <point x="509" y="679"/>
      <point x="497" y="694"/>
      <point x="478" y="694" type="curve" smooth="yes"/>
      <point x="456" y="694"/>
      <point x="451" y="677"/>
      <point x="447" y="664" type="curve" smooth="yes"/>
      <point x="363" y="393" type="line"/>
      <point x="110" y="393" type="line" smooth="yes"/>
      <point x="95" y="393"/>
      <point x="64" y="393"/>
      <point x="64" y="362" type="curve" smooth="yes"/>
      <point x="64" y="332"/>
      <point x="93" y="332"/>
      <point x="105" y="332" type="curve" smooth="yes"/>
      <point x="343" y="332" type="line"/>
      <point x="294" y="169" type="line"/>
      <point x="105" y="169" type="line" smooth="yes"/>
      <point x="93" y="169"/>
      <point x="64" y="169"/>
      <point x="64" y="139" type="curve" smooth="yes"/>
      <point x="64" y="108"/>
      <point x="95" y="108"/>
      <point x="110" y="108" type="curve" smooth="yes"/>
      <point x="274" y="108" type="line"/>
      <point x="196" y="-144" type="line" smooth="yes"/>
      <point x="194" y="-150"/>
      <point x="192" y="-156"/>
      <point x="192" y="-164" type="curve" smooth="yes"/>
      <point x="192" y="-179"/>
      <point x="204" y="-194"/>
      <point x="223" y="-194" type="curve" smooth="yes"/>
      <point x="244" y="-194"/>
      <point x="249" y="-178"/>
      <point x="253" y="-166" type="curve" smooth="yes"/>
      <point x="338" y="108" type="line"/>
      <point x="530" y="108" type="line"/>
      <point x="452" y="-144" type="line" smooth="yes"/>
      <point x="450" y="-150"/>
      <point x="448" y="-156"/>
      <point x="448" y="-164" type="curve" smooth="yes"/>
      <point x="448" y="-179"/>
      <point x="460" y="-194"/>
      <point x="479" y="-194" type="curve" smooth="yes"/>
      <point x="500" y="-194"/>
      <point x="505" y="-178"/>
      <point x="509" y="-166" type="curve" smooth="yes"/>
    </contour>
    <contour>
      <point x="358" y="169" type="line"/>
      <point x="407" y="332" type="line"/>
      <point x="599" y="332" type="line"/>
      <point x="550" y="169" type="line"/>
    </contour>
  </outline>
</glyph>
<glyph name="asterisk" format="2">
  <advance width="575"/>
  <unicode hex="002A"/>
  <outline>
    <contour>
      <point x="307" y="495" type="line"/>
      <point x="429" y="403" type="line" smooth="yes"/>
      <point x="442" y="393"/>
      <point x="451" y="392"/>
      <point x="456" y="392" type="curve" smooth="yes"/>
      <point x="476" y="392"/>
      <point x="500" y="411"/>
      <point x="500" y="440" type="curve" smooth="yes"/>
      <point x="500" y="469"/>
      <point x="479" y="476"/>
      <point x="470" y="479" type="curve" smooth="yes"/>
      <point x="329" y="528" type="line"/>
      <point x="470" y="577" type="line" smooth="yes"/>
      <point x="479" y="580"/>
      <point x="500" y="587"/>
      <point x="500" y="616" type="curve" smooth="yes"/>
      <point x="500" y="645"/>
      <point x="476" y="664"/>
      <point x="456" y="664" type="curve" smooth="yes"/>
      <point x="450" y="664"/>
      <point x="441" y="662"/>
      <point x="429" y="653" type="curve" smooth="yes"/>
      <point x="306" y="560" type="line"/>
      <point x="328" y="688" type="line" smooth="yes"/>
      <point x="331" y="704"/>
      <point x="331" y="706"/>
      <point x="331" y="711" type="curve" smooth="yes"/>
      <point x="331" y="740"/>
      <point x="304" y="750"/>
      <point x="287" y="750" type="curve" smooth="yes"/>
      <point x="270" y="750"/>
      <point x="243" y="739"/>
      <point x="243" y="711" type="curve" smooth="yes"/>
      <point x="243" y="706"/>
      <point x="243" y="704"/>
      <point x="246" y="688" type="curve" smooth="yes"/>
      <point x="268" y="560" type="line"/>
      <point x="145" y="653" type="line" smooth="yes"/>
      <point x="133" y="662"/>
      <point x="124" y="664"/>
      <point x="118" y="664" type="curve" smooth="yes"/>
      <point x="98" y="664"/>
      <point x="74" y="645"/>
      <point x="74" y="616" type="curve" smooth="yes"/>
      <point x="74" y="587"/>
      <point x="95" y="580"/>
      <point x="104" y="577" type="curve" smooth="yes"/>
      <point x="245" y="528" type="line"/>
      <point x="104" y="479" type="line" smooth="yes"/>
      <point x="95" y="476"/>
      <point x="74" y="469"/>
      <point x="74" y="440" type="curve" smooth="yes"/>
      <point x="74" y="411"/>
      <point x="98" y="392"/>
      <point x="118" y="392" type="curve" smooth="yes"/>
      <point x="124" y="392"/>
      <point x="133" y="394"/>
      <point x="145" y="403" type="curve" smooth="yes"/>
      <point x="268" y="496" type="line"/>
      <point x="246" y="368" type="line" smooth="yes"/>
      <point x="243" y="352"/>
      <point x="243" y="350"/>
      <point x="243" y="345" type="curve" smooth="yes"/>
      <point x="243" y="316"/>
      <point x="270" y="306"/>
      <point x="287" y="306" type="curve" smooth="yes"/>
      <point x="304" y="306"/>
      <point x="331" y="317"/>
      <point x="331" y="345" type="curve" smooth="yes"/>
      <point x="331" y="350"/>
      <point x="324" y="393"/>
      <point x="320" y="418" type="curve" smooth="yes"/>
    </contour>
  </outline>
</glyph>
<glyph name="plus" format="2">
  <advance width="894"/>
  <unicode hex="002B"/>
  <outline>
    <contour>
      <point x="477" y="220" type="line"/>
      <point x="786" y="220" type="line" smooth="yes"/>
      <point x="799" y="220"/>
      <point x="829" y="220"/>
      <point x="829" y="250" type="curve" smooth="yes"/>
      <point x="829" y="281"/>
      <point x="800" y="281"/>
      <point x="786" y="281" type="curve" smooth="yes"/>
      <point x="477" y="281" type="line"/>
      <point x="477" y="591" type="line" smooth="yes"/>
      <point x="477" y="603"/>
      <point x="477" y="633"/>
      <point x="447" y="633" type="curve" smooth="yes"/>
      <point x="416" y="633"/>
      <point x="416" y="604"/>
      <point x="416" y="591" type="curve" smooth="yes"/>
      <point x="416" y="281" type="line"/>
      <point x="107" y="281" type="line" smooth="yes"/>
      <point x="93" y="281"/>
      <point x="64" y="281"/>
      <point x="64" y="250" type="curve" smooth="yes"/>
      <point x="64" y="220"/>
      <point x="94" y="220"/>
      <point x="107" y="220" type="curve" smooth="yes"/>
      <point x="416" y="220" type="line"/>
      <point x="416" y="-90" type="line" smooth="yes"/>
      <point x="416" y="-102"/>
      <point x="416" y="-132"/>
      <point x="446" y="-132" type="curve" smooth="yes"/>
      <point x="477" y="-132"/>
      <point x="477" y="-103"/>
      <point x="477" y="-90" type="curve" smooth="yes"/>
    </contour>
  </outline>
</glyph>
<glyph name="slash" format="2">
  <advance width="575"/>
  <unicode hex="002F"/>
  <outline>
    <contour>
      <point x="505" y="700" type="line" smooth="yes"/>
      <point x="510" y="712"/>
      <point x="510" y="718"/>
      <point x="510" y="719" type="curve" smooth="yes"/>
      <point x="510" y="739"/>
      <point x="494" y="750"/>
      <point x="480" y="750" type="curve" smooth="yes"/>
      <point x="459" y="750"/>
      <point x="454" y="736"/>
      <point x="448" y="722" type="curve" smooth="yes"/>
      <point x="69" y="-200" type="line" smooth="yes"/>
      <point x="64" y="-212"/>
      <point x="64" y="-218"/>
      <point x="64" y="-219" type="curve" smooth="yes"/>
      <point x="64" y="-239"/>
      <point x="80" y="-250"/>
      <point x="94" y="-250" type="curve" smooth="yes"/>
      <point x="115" y="-250"/>
      <point x="120" y="-237"/>
      <point x="126" y="-222" type="curve" smooth="yes"/>
    </contour>
  </outline>
</glyph>
<glyph name="five" format="2">
  <advance width="575"/>
  <unicode hex="0035"/>
  <outline>
    <contour>
      <point x="517" y="201" type="curve" smooth="yes"/>
      <point x="517" y="316"/>
      <point x="438" y="409"/>
      <point x="290" y="409" type="curve" smooth="yes"/>
      <point x="261" y="409"/>
      <point x="208" y="406"/>
      <point x="161" y="374" type="curve"/>
      <point x="161" y="506" type="line"/>
      <point x="189" y="501"/>
      <point x="200" y="499"/>
      <point x="234" y="499" type="curve" smooth="yes"/>
      <point x="380" y="499"/>
      <point x="472" y="612"/>
      <point x="472" y="637" type="curve" smooth="yes"/>
      <point x="472" y="644"/>
      <point x="470" y="655"/>
      <point x="458" y="655" type="curve" smooth="yes"/>
      <point x="455" y="655"/>
      <point x="454" y="655"/>
      <point x="443" y="651" type="curve" smooth="yes"/>
      <point x="386" y="629"/>
      <point x="333" y="623"/>
      <point x="290" y="623" type="curve" smooth="yes"/>
      <point x="214" y="623"/>
      <point x="161" y="642"/>
      <point x="135" y="651" type="curve" smooth="yes"/>
      <point x="126" y="654"/>
      <point x="125" y="655"/>
      <point x="122" y="655" type="curve" smooth="yes"/>
      <point x="108" y="655"/>
      <point x="108" y="644"/>
      <point x="108" y="628" type="curve" smooth="yes"/>
      <point x="108" y="336" type="line" smooth="yes"/>
      <point x="108" y="318"/>
      <point x="108" y="305"/>
      <point x="130" y="305" type="curve" smooth="yes"/>
      <point x="143" y="305"/>
      <point x="145" y="309"/>
      <point x="152" y="317" type="curve" smooth="yes"/>
      <point x="191" y="363"/>
      <point x="245" y="373"/>
      <point x="286" y="373" type="curve" smooth="yes"/>
      <point x="375" y="373"/>
      <point x="375" y="285"/>
      <point x="375" y="205" type="curve" smooth="yes"/>
      <point x="375" y="132"/>
      <point x="375" y="32"/>
      <point x="255" y="32" type="curve" smooth="yes"/>
      <point x="231" y="32"/>
      <point x="168" y="37"/>
      <point x="126" y="94" type="curve"/>
      <point x="162" y="96"/>
      <point x="191" y="120"/>
      <point x="191" y="161" type="curve" smooth="yes"/>
      <point x="191" y="214"/>
      <point x="148" y="229"/>
      <point x="124" y="229" type="curve" smooth="yes"/>
      <point x="109" y="229"/>
      <point x="57" y="220"/>
      <point x="57" y="159" type="curve" smooth="yes"/>
      <point x="57" y="74"/>
      <point x="135" y="-11"/>
      <point x="259" y="-11" type="curve" smooth="yes"/>
      <point x="419" y="-11"/>
      <point x="517" y="79"/>
    </contour>
  </outline>
</glyph>
<glyph name="six" format="2">
  <advance width="575"/>
  <unicode hex="0036"/>
  <outline>
    <contour>
      <point x="184" y="342" type="curve"/>
      <point x="184" y="361" type="line" smooth="yes"/>
      <point x="184" y="475"/>
      <point x="205" y="518"/>
      <point x="212" y="533" type="curve" smooth="yes"/>
      <point x="236" y="580"/>
      <point x="290" y="616"/>
      <point x="351" y="616" type="curve" smooth="yes"/>
      <point x="369" y="616"/>
      <point x="403" y="613"/>
      <point x="426" y="590" type="curve"/>
      <point x="390" y="585"/>
      <point x="372" y="558"/>
      <point x="372" y="528" type="curve" smooth="yes"/>
      <point x="372" y="494"/>
      <point x="395" y="466"/>
      <point x="434" y="466" type="curve" smooth="yes"/>
      <point x="473" y="466"/>
      <point x="497" y="492"/>
      <point x="497" y="530" type="curve" smooth="yes"/>
      <point x="497" y="592"/>
      <point x="455" y="655"/>
      <point x="349" y="655" type="curve" smooth="yes"/>
      <point x="213" y="655"/>
      <point x="48" y="569"/>
      <point x="48" y="317" type="curve" smooth="yes"/>
      <point x="48" y="238"/>
      <point x="57" y="158"/>
      <point x="98" y="89" type="curve" smooth="yes"/>
      <point x="145" y="13"/>
      <point x="221" y="-11"/>
      <point x="291" y="-11" type="curve" smooth="yes"/>
      <point x="430" y="-11"/>
      <point x="526" y="71"/>
      <point x="526" y="205" type="curve" smooth="yes"/>
      <point x="526" y="345"/>
      <point x="425" y="418"/>
      <point x="304" y="418" type="curve" smooth="yes"/>
      <point x="282" y="418"/>
      <point x="226" y="418"/>
    </contour>
    <contour>
      <point x="289" y="32" type="curve" smooth="yes"/>
      <point x="237" y="32"/>
      <point x="210" y="71"/>
      <point x="202" y="87" type="curve" smooth="yes"/>
      <point x="186" y="119"/>
      <point x="186" y="192"/>
      <point x="186" y="210" type="curve" smooth="yes"/>
      <point x="186" y="335"/>
      <point x="240" y="382"/>
      <point x="295" y="382" type="curve" smooth="yes"/>
      <point x="390" y="382"/>
      <point x="390" y="307"/>
      <point x="390" y="207" type="curve" smooth="yes"/>
      <point x="390" y="106"/>
      <point x="390" y="32"/>
    </contour>
  </outline>
</glyph>
<glyph name="nine" format="2">
  <advance width="575"/>
  <unicode hex="0039"/>
  <outline>
    <contour>
      <point x="390" y="304" type="curve"/>
      <point x="390" y="282" type="line" smooth="yes"/>
      <point x="390" y="209"/>
      <point x="381" y="150"/>
      <point x="366" y="116" type="curve" smooth="yes"/>
      <point x="349" y="77"/>
      <point x="306" y="32"/>
      <point x="237" y="32" type="curve" smooth="yes"/>
      <point x="219" y="32"/>
      <point x="183" y="34"/>
      <point x="153" y="54" type="curve"/>
      <point x="165" y="57"/>
      <point x="202" y="71"/>
      <point x="202" y="116" type="curve" smooth="yes"/>
      <point x="202" y="150"/>
      <point x="179" y="178"/>
      <point x="140" y="178" type="curve" smooth="yes"/>
      <point x="101" y="178"/>
      <point x="77" y="152"/>
      <point x="77" y="114" type="curve" smooth="yes"/>
      <point x="77" y="46"/>
      <point x="128" y="-11"/>
      <point x="239" y="-11" type="curve" smooth="yes"/>
      <point x="369" y="-11"/>
      <point x="526" y="73"/>
      <point x="526" y="329" type="curve" smooth="yes"/>
      <point x="526" y="396"/>
      <point x="526" y="655"/>
      <point x="289" y="655" type="curve" smooth="yes"/>
      <point x="147" y="655"/>
      <point x="48" y="574"/>
      <point x="48" y="440" type="curve" smooth="yes"/>
      <point x="48" y="302"/>
      <point x="147" y="227"/>
      <point x="270" y="227" type="curve" smooth="yes"/>
      <point x="305" y="227"/>
      <point x="352" y="234"/>
    </contour>
    <contour>
      <point x="279" y="263" type="curve" smooth="yes"/>
      <point x="184" y="263"/>
      <point x="184" y="338"/>
      <point x="184" y="438" type="curve" smooth="yes"/>
      <point x="184" y="536"/>
      <point x="184" y="616"/>
      <point x="291" y="616" type="curve" smooth="yes"/>
      <point x="350" y="616"/>
      <point x="373" y="563"/>
      <point x="377" y="553" type="curve" smooth="yes"/>
      <point x="389" y="520"/>
      <point x="389" y="462"/>
      <point x="389" y="428" type="curve" smooth="yes"/>
      <point x="389" y="365"/>
      <point x="363" y="263"/>
    </contour>
  </outline>
</glyph>
<glyph name="colon" format="2">
  <advance width="319"/>
  <unicode hex="003A"/>
  <outline>
    <contour>
      <point x="237" y="366" type="curve" smooth="yes"/>
      <point x="237" y="409"/>
      <point x="202" y="444"/>
      <point x="159" y="444" type="curve" smooth="yes"/>
      <point x="116" y="444"/>
      <point x="81" y="409"/>
      <point x="81" y="366" type="curve" smooth="yes"/>
      <point x="81" y="323"/>
      <point x="116" y="288"/>
      <point x="159" y="288" type="curve" smooth="yes"/>
      <point x="202" y="288"/>
      <point x="237" y="323"/>
    </contour>
    <contour>
      <point x="237" y="78" type="curve" smooth="yes"/>
      <point x="237" y="121"/>
      <point x="202" y="156"/>
      <point x="159" y="156" type="curve" smooth="yes"/>
      <point x="116" y="156"/>
      <point x="81" y="121"/>
      <point x="81" y="78" type="curve" smooth="yes"/>
      <point x="81" y="35"/>
      <point x="116" y="0"/>
      <point x="159" y="0" type="curve" smooth="yes"/>
      <point x="202" y="0"/>
      <point x="237" y="35"/>
    </contour>
  </outline>
</glyph>
<glyph name="O" format="2">
  <advance width="863"/>
  <unicode hex="004F"/>
  <outline>
    <contour>
      <point x="799" y="339" type="curve" smooth="yes"/>
      <point x="799" y="555"/>
      <point x="654" y="697"/>
      <point x="432" y="697" type="curve" smooth="yes"/>
      <point x="203" y="697"/>
      <point x="64" y="549"/>
      <point x="64" y="339" type="curve" smooth="yes"/>
      <point x="64" y="132"/>
      <point x="204" y="-11"/>
      <point x="431" y="-11" type="curve" smooth="yes"/>
      <point x="661" y="-11"/>
      <point x="799" y="134"/>
    </contour>
    <contour>
      <point x="431" y="31" type="curve" smooth="yes"/>
      <point x="372" y="31"/>
      <point x="299" y="59"/>
      <point x="258" y="135" type="curve" smooth="yes"/>
      <point x="225" y="197"/>
      <point x="217" y="268"/>
      <point x="217" y="354" type="curve" smooth="yes"/>
      <point x="217" y="418"/>
      <point x="220" y="503"/>
      <point x="264" y="571" type="curve" smooth="yes"/>
      <point x="305" y="632"/>
      <point x="372" y="657"/>
      <point x="431" y="657" type="curve" smooth="yes"/>
      <point x="495" y="657"/>
      <point x="564" y="629"/>
      <point x="604" y="563" type="curve" smooth="yes"/>
      <point x="642" y="499"/>
      <point x="646" y="422"/>
      <point x="646" y="354" type="curve" smooth="yes"/>
      <point x="646" y="284"/>
      <point x="642" y="195"/>
      <point x="600" y="126" type="curve" smooth="yes"/>
      <point x="555" y="53"/>
      <point x="485" y="31"/>
    </contour>
  </outline>
</glyph>
<glyph name="S" format="2">
  <advance width="638"/>
  <unicode hex="0053"/>
  <outline>
    <contour>
      <point x="402" y="414" type="curve" smooth="yes"/>
      <point x="257" y="445" type="line" smooth="yes"/>
      <point x="217" y="454"/>
      <point x="161" y="488"/>
      <point x="161" y="549" type="curve" smooth="yes"/>
      <point x="161" y="592"/>
      <point x="189" y="654"/>
      <point x="289" y="654" type="curve" smooth="yes"/>
      <point x="369" y="654"/>
      <point x="470" y="620"/>
      <point x="493" y="484" type="curve" smooth="yes"/>
      <point x="497" y="460"/>
      <point x="497" y="458"/>
      <point x="518" y="458" type="curve" smooth="yes"/>
      <point x="542" y="458"/>
      <point x="542" y="463"/>
      <point x="542" y="486" type="curve" smooth="yes"/>
      <point x="542" y="669" type="line" smooth="yes"/>
      <point x="542" y="688"/>
      <point x="542" y="697"/>
      <point x="524" y="697" type="curve" smooth="yes"/>
      <point x="516" y="697"/>
      <point x="515" y="696"/>
      <point x="504" y="686" type="curve" smooth="yes"/>
      <point x="459" y="642" type="line"/>
      <point x="401" y="688"/>
      <point x="336" y="697"/>
      <point x="288" y="697" type="curve" smooth="yes"/>
      <point x="136" y="697"/>
      <point x="64" y="601"/>
      <point x="64" y="496" type="curve" smooth="yes"/>
      <point x="64" y="431"/>
      <point x="97" y="385"/>
      <point x="118" y="363" type="curve" smooth="yes"/>
      <point x="167" y="314"/>
      <point x="201" y="307"/>
      <point x="310" y="283" type="curve" smooth="yes"/>
      <point x="398" y="264"/>
      <point x="415" y="261"/>
      <point x="437" y="240" type="curve" smooth="yes"/>
      <point x="452" y="225"/>
      <point x="477" y="199"/>
      <point x="477" y="153" type="curve" smooth="yes"/>
      <point x="477" y="105"/>
      <point x="451" y="36"/>
      <point x="347" y="36" type="curve" smooth="yes"/>
      <point x="271" y="36"/>
      <point x="119" y="56"/>
      <point x="111" y="205" type="curve" smooth="yes"/>
      <point x="110" y="223"/>
      <point x="110" y="228"/>
      <point x="88" y="228" type="curve" smooth="yes"/>
      <point x="64" y="228"/>
      <point x="64" y="222"/>
      <point x="64" y="199" type="curve" smooth="yes"/>
      <point x="64" y="17" type="line" smooth="yes"/>
      <point x="64" y="-2"/>
      <point x="64" y="-11"/>
      <point x="82" y="-11" type="curve" smooth="yes"/>
      <point x="91" y="-11"/>
      <point x="93" y="-9"/>
      <point x="101" y="-2" type="curve"/>
      <point x="147" y="44" type="line"/>
      <point x="213" y="-5"/>
      <point x="306" y="-11"/>
      <point x="347" y="-11" type="curve" smooth="yes"/>
      <point x="512" y="-11"/>
      <point x="574" y="102"/>
      <point x="574" y="203" type="curve" smooth="yes"/>
      <point x="574" y="314"/>
      <point x="493" y="395"/>
    </contour>
  </outline>
</glyph>
<glyph name="bracketleft" format="2">
  <advance width="319"/>
  <unicode hex="005B"/>
  <outline>
    <contour>
      <point x="293" y="-250" type="line"/>
      <point x="293" y="-189" type="line"/>
      <point x="189" y="-189" type="line"/>
      <point x="189" y="689" type="line"/>
      <point x="293" y="689" type="line"/>
      <point x="293" y="750" type="line"/>
      <point x="128" y="750" type="line"/>
      <point x="128" y="-250" type="line"/>
    </contour>
  </outline>
</glyph>
<glyph name="a" format="2">
  <advance width="559"/>
  <unicode hex="0061"/>
  <outline>
    <contour>
      <point x="374" y="77" type="curve"/>
      <point x="374" y="46"/>
      <point x="374" y="0"/>
      <point x="478" y="0" type="curve" smooth="yes"/>
      <point x="526" y="0" type="line" smooth="yes"/>
      <point x="546" y="0"/>
      <point x="558" y="0"/>
      <point x="558" y="24" type="curve" smooth="yes"/>
      <point x="558" y="47"/>
      <point x="545" y="47"/>
      <point x="532" y="47" type="curve" smooth="yes"/>
      <point x="471" y="48"/>
      <point x="471" y="61"/>
      <point x="471" y="84" type="curve" smooth="yes"/>
      <point x="471" y="299" type="line" smooth="yes"/>
      <point x="471" y="388"/>
      <point x="400" y="453"/>
      <point x="251" y="453" type="curve" smooth="yes"/>
      <point x="194" y="453"/>
      <point x="72" y="449"/>
      <point x="72" y="361" type="curve" smooth="yes"/>
      <point x="72" y="317"/>
      <point x="107" y="298"/>
      <point x="134" y="298" type="curve" smooth="yes"/>
      <point x="165" y="298"/>
      <point x="197" y="319"/>
      <point x="197" y="361" type="curve" smooth="yes"/>
      <point x="197" y="391"/>
      <point x="178" y="408"/>
      <point x="175" y="410" type="curve"/>
      <point x="203" y="416"/>
      <point x="235" y="417"/>
      <point x="247" y="417" type="curve" smooth="yes"/>
      <point x="322" y="417"/>
      <point x="357" y="375"/>
      <point x="357" y="299" type="curve" smooth="yes"/>
      <point x="357" y="265" type="line"/>
      <point x="286" y="262"/>
      <point x="32" y="253"/>
      <point x="32" y="108" type="curve" smooth="yes"/>
      <point x="32" y="12"/>
      <point x="156" y="-6"/>
      <point x="225" y="-6" type="curve" smooth="yes"/>
      <point x="305" y="-6"/>
      <point x="352" y="35"/>
    </contour>
    <contour>
      <point x="357" y="234" type="curve"/>
      <point x="357" y="139" type="line" smooth="yes"/>
      <point x="357" y="43"/>
      <point x="265" y="30"/>
      <point x="240" y="30" type="curve" smooth="yes"/>
      <point x="189" y="30"/>
      <point x="149" y="65"/>
      <point x="149" y="109" type="curve" smooth="yes"/>
      <point x="149" y="217"/>
      <point x="307" y="231"/>
    </contour>
  </outline>
</glyph>
<glyph name="b" format="2">
  <advance width="638"/>
  <unicode hex="0062"/>
  <outline>
    <contour>
      <point x="214" y="401" type="curve"/>
      <point x="214" y="694" type="line"/>
      <point x="37" y="686" type="line"/>
      <point x="37" y="639" type="line"/>
      <point x="99" y="639"/>
      <point x="106" y="639"/>
      <point x="106" y="600" type="curve" smooth="yes"/>
      <point x="106" y="0" type="line"/>
      <point x="153" y="0" type="line"/>
      <point x="202" y="56" type="line"/>
      <point x="210" y="48"/>
      <point x="259" y="-6"/>
      <point x="348" y="-6" type="curve" smooth="yes"/>
      <point x="497" y="-6"/>
      <point x="600" y="84"/>
      <point x="600" y="223" type="curve" smooth="yes"/>
      <point x="600" y="356"/>
      <point x="506" y="450"/>
      <point x="361" y="450" type="curve" smooth="yes"/>
      <point x="288" y="450"/>
      <point x="238" y="421"/>
    </contour>
    <contour>
      <point x="220" y="99" type="curve"/>
      <point x="220" y="350" type="line"/>
      <point x="247" y="385"/>
      <point x="295" y="414"/>
      <point x="350" y="414" type="curve" smooth="yes"/>
      <point x="472" y="414"/>
      <point x="472" y="293"/>
      <point x="472" y="223" type="curve" smooth="yes"/>
      <point x="472" y="176"/>
      <point x="472" y="121"/>
      <point x="446" y="82" type="curve" smooth="yes"/>
      <point x="417" y="41"/>
      <point x="371" y="30"/>
      <point x="339" y="30" type="curve" smooth="yes"/>
      <point x="269" y="30"/>
      <point x="230" y="84"/>
    </contour>
  </outline>
</glyph>
<glyph name="t" format="2">
  <advance width="447"/>
  <unicode hex="0074"/>
  <outline>
    <contour>
      <point x="103" y="397" type="line"/>
      <point x="103" y="123" type="line" smooth="yes"/>
      <point x="103" y="16"/>
      <point x="190" y="-6"/>
      <point x="261" y="-6" type="curve" smooth="yes"/>
      <point x="337" y="-6"/>
      <point x="382" y="51"/>
      <point x="382" y="124" type="curve" smooth="yes"/>
      <point x="382" y="177" type="line"/>
      <point x="335" y="177" type="line"/>
      <point x="335" y="126" type="line" smooth="yes"/>
      <point x="335" y="58"/>
      <point x="303" y="34"/>
      <point x="275" y="34" type="curve" smooth="yes"/>
      <point x="217" y="34"/>
      <point x="217" y="98"/>
      <point x="217" y="121" type="curve" smooth="yes"/>
      <point x="217" y="397" type="line"/>
      <point x="363" y="397" type="line"/>
      <point x="363" y="444" type="line"/>
      <point x="217" y="444" type="line"/>
      <point x="217" y="635" type="line"/>
      <point x="170" y="635" type="line"/>
      <point x="169" y="535"/>
      <point x="120" y="436"/>
      <point x="21" y="433" type="curve"/>
      <point x="21" y="397" type="line"/>
    </contour>
  </outline>
</glyph>
<glyph name="u" format="2">
  <advance width="638"/>
  <unicode hex="0075"/>
  <outline>
    <contour>
      <point x="438" y="72" type="curve"/>
      <point x="438" y="-6" type="line"/>
      <point x="615" y="0" type="line"/>
      <point x="615" y="47" type="line"/>
      <point x="553" y="47"/>
      <point x="546" y="47"/>
      <point x="546" y="86" type="curve" smooth="yes"/>
      <point x="546" y="450" type="line"/>
      <point x="363" y="442" type="line"/>
      <point x="363" y="395" type="line"/>
      <point x="425" y="395"/>
      <point x="432" y="395"/>
      <point x="432" y="356" type="curve" smooth="yes"/>
      <point x="432" y="165" type="line" smooth="yes"/>
      <point x="432" y="83"/>
      <point x="381" y="30"/>
      <point x="308" y="30" type="curve" smooth="yes"/>
      <point x="231" y="30"/>
      <point x="228" y="55"/>
      <point x="228" y="109" type="curve" smooth="yes"/>
      <point x="228" y="450" type="line"/>
      <point x="45" y="442" type="line"/>
      <point x="45" y="395" type="line"/>
      <point x="107" y="395"/>
      <point x="114" y="395"/>
      <point x="114" y="356" type="curve" smooth="yes"/>
      <point x="114" y="123" type="line" smooth="yes"/>
      <point x="114" y="16"/>
      <point x="195" y="-6"/>
      <point x="294" y="-6" type="curve" smooth="yes"/>
      <point x="320" y="-6"/>
      <point x="392" y="-6"/>
    </contour>
  </outline>
</glyph>
<glyph name="v" format="2">
  <advance width="606"/>
  <unicode hex="0076"/>
  <outline>
    <contour>
      <point x="506" y="376" type="line" smooth="yes"/>
      <point x="512" y="390"/>
      <point x="516" y="397"/>
      <point x="580" y="397" type="curve"/>
      <point x="580" y="444" type="line"/>
      <point x="555" y="442"/>
      <point x="526" y="441"/>
      <point x="501" y="441" type="curve" smooth="yes"/>
      <point x="476" y="441"/>
      <point x="431" y="443"/>
      <point x="410" y="444" type="curve"/>
      <point x="410" y="397" type="line"/>
      <point x="429" y="397"/>
      <point x="458" y="394"/>
      <point x="458" y="386" type="curve" smooth="yes"/>
      <point x="458" y="385"/>
      <point x="457" y="383"/>
      <point x="453" y="374" type="curve" smooth="yes"/>
      <point x="337" y="124" type="line"/>
      <point x="210" y="397" type="line"/>
      <point x="264" y="397" type="line"/>
      <point x="264" y="444" type="line"/>
      <point x="231" y="442"/>
      <point x="141" y="441"/>
      <point x="140" y="441" type="curve" smooth="yes"/>
      <point x="112" y="441"/>
      <point x="67" y="443"/>
      <point x="26" y="444" type="curve"/>
      <point x="26" y="397" type="line"/>
      <point x="90" y="397" type="line"/>
      <point x="265" y="21" type="line" smooth="yes"/>
      <point x="277" y="-4"/>
      <point x="290" y="-4"/>
      <point x="303" y="-4" type="curve" smooth="yes"/>
      <point x="320" y="-4"/>
      <point x="330" y="-1"/>
      <point x="340" y="20" type="curve" smooth="yes"/>
    </contour>
  </outline>
</glyph>
<glyph name="dieresis" format="2">
  <advance width="575"/>
  <unicode hex="00A8"/>
  <outline>
    <contour>
      <point x="248" y="622" type="curve" smooth="yes"/>
      <point x="248" y="667"/>
      <point x="212" y="695"/>
      <point x="176" y="695" type="curve" smooth="yes"/>
      <point x="131" y="695"/>
      <point x="103" y="658"/>
      <point x="103" y="623" type="curve" smooth="yes"/>
      <point x="103" y="585"/>
      <point x="134" y="550"/>
      <point x="176" y="550" type="curve" smooth="yes"/>
      <point x="214" y="550"/>
      <point x="248" y="581"/>
    </contour>
    <contour>
      <point x="471" y="622" type="curve" smooth="yes"/>
      <point x="471" y="660"/>
      <point x="440" y="695"/>
      <point x="398" y="695" type="curve" smooth="yes"/>
      <point x="360" y="695"/>
      <point x="326" y="664"/>
      <point x="326" y="623" type="curve" smooth="yes"/>
      <point x="326" y="578"/>
      <point x="362" y="550"/>
      <point x="398" y="550" type="curve" smooth="yes"/>
      <point x="443" y="550"/>
      <point x="471" y="587"/>
    </contour>
  </outline>
</glyph>
<glyph name="cedilla" format="2">
  <advance width="511"/>
  <unicode hex="00B8"/>
  <outline>
    <contour>
      <point x="344" y="-11" type="line"/>
      <point x="230" y="-11" type="line"/>
      <point x="230" y="-60" type="line"/>
      <point x="264" y="-60"/>
      <point x="326" y="-67"/>
      <point x="326" y="-111" type="curve" smooth="yes"/>
      <point x="326" y="-163"/>
      <point x="210" y="-163"/>
      <point x="172" y="-163" type="curve" smooth="yes"/>
      <point x="134" y="-163" type="line"/>
      <point x="134" y="-199" type="line"/>
      <point x="191" y="-199" type="line" smooth="yes"/>
      <point x="241" y="-199"/>
      <point x="291" y="-197"/>
      <point x="341" y="-188" type="curve" smooth="yes"/>
      <point x="384" y="-179"/>
      <point x="440" y="-162"/>
      <point x="440" y="-111" type="curve" smooth="yes"/>
      <point x="440" y="-54"/>
      <point x="385" y="-37"/>
      <point x="344" y="-30" type="curve"/>
    </contour>
  </outline>
</glyph>
<glyph name="oslash" format="2">
  <advance width="575"/>
  <unicode hex="00F8"/>
  <outline>
    <contour>
      <point x="500" y="532" type="line"/>
      <point x="470" y="552" type="line"/>
      <point x="398" y="435" type="line"/>
      <point x="346" y="453"/>
      <point x="296" y="453"/>
      <point x="287" y="453" type="curve" smooth="yes"/>
      <point x="123" y="453"/>
      <point x="32" y="351"/>
      <point x="32" y="218" type="curve" smooth="yes"/>
      <point x="32" y="157"/>
      <point x="55" y="74"/>
      <point x="144" y="26" type="curve"/>
      <point x="74" y="-87" type="line"/>
      <point x="104" y="-107" type="line"/>
      <point x="177" y="11" type="line"/>
      <point x="227" y="-6"/>
      <point x="275" y="-6"/>
      <point x="287" y="-6" type="curve" smooth="yes"/>
      <point x="455" y="-6"/>
      <point x="542" y="95"/>
      <point x="542" y="218" type="curve" smooth="yes"/>
      <point x="542" y="294"/>
      <point x="510" y="376"/>
      <point x="430" y="419" type="curve"/>
    </contour>
    <contour>
      <point x="175" y="77" type="line"/>
      <point x="146" y="113"/>
      <point x="146" y="170"/>
      <point x="146" y="219" type="curve" smooth="yes"/>
      <point x="146" y="294"/>
      <point x="146" y="417"/>
      <point x="287" y="417" type="curve" smooth="yes"/>
      <point x="317" y="417"/>
      <point x="347" y="411"/>
      <point x="372" y="394" type="curve"/>
    </contour>
    <contour>
      <point x="398" y="368" type="line"/>
      <point x="427" y="329"/>
      <point x="428" y="275"/>
      <point x="428" y="219" type="curve" smooth="yes"/>
      <point x="428" y="144"/>
      <point x="428" y="30"/>
      <point x="287" y="30" type="curve" smooth="yes"/>
      <point x="275" y="30"/>
      <point x="236" y="30"/>
      <point x="203" y="52" type="curve"/>
    </contour>
  </outline>
</glyph>
<glyph name="ring" format="2">
  <advance width="869"/>
  <unicode hex="02DA"/>
  <outline>
    <contour>
      <point x="553" y="618" type="curve" smooth="yes"/>
      <point x="553" y="658"/>
      <point x="521" y="702"/>
      <point x="434" y="702" type="curve" smooth="yes"/>
      <point x="344" y="702"/>
      <point x="315" y="655"/>
      <point x="315" y="619" type="curve" smooth="yes"/>
      <point x="315" y="579"/>
      <point x="347" y="535"/>
      <point x="434" y="535" type="curve" smooth="yes"/>
      <point x="524" y="535"/>
      <point x="553" y="582"/>
    </contour>
    <contour>
      <point x="434" y="571" type="curve" smooth="yes"/>
      <point x="391" y="571"/>
      <point x="362" y="574"/>
      <point x="362" y="619" type="curve" smooth="yes"/>
      <point x="362" y="664"/>
      <point x="394" y="666"/>
      <point x="434" y="666" type="curve" smooth="yes"/>
      <point x="474" y="666"/>
      <point x="506" y="664"/>
      <point x="506" y="619" type="curve" smooth="yes"/>
      <point x="506" y="574"/>
      <point x="477" y="571"/>
    </contour>
  </outline>
</glyph>
<glyph name="Theta" format="2">
  <advance width="894"/>
  <unicode hex="0398"/>
  <outline>
    <contour>
      <point x="829" y="340" type="curve" smooth="yes"/>
      <point x="829" y="542"/>
      <point x="691" y="697"/>
      <point x="447" y="697" type="curve" smooth="yes"/>
      <point x="196" y="697"/>
      <point x="64" y="537"/>
      <point x="64" y="340" type="curve" smooth="yes"/>
      <point x="64" y="134"/>
      <point x="207" y="-11"/>
      <point x="446" y="-11" type="curve" smooth="yes"/>
      <point x="690" y="-11"/>
      <point x="829" y="138"/>
    </contour>
    <contour>
      <point x="446" y="27" type="curve" smooth="yes"/>
      <point x="390" y="27"/>
      <point x="301" y="46"/>
      <point x="248" y="136" type="curve" smooth="yes"/>
      <point x="211" y="199"/>
      <point x="206" y="278"/>
      <point x="206" y="340" type="curve" smooth="yes"/>
      <point x="206" y="413"/>
      <point x="214" y="494"/>
      <point x="254" y="559" type="curve" smooth="yes"/>
      <point x="302" y="634"/>
      <point x="379" y="661"/>
      <point x="446" y="661" type="curve" smooth="yes"/>
      <point x="520" y="661"/>
      <point x="596" y="629"/>
      <point x="640" y="557" type="curve" smooth="yes"/>
      <point x="677" y="496"/>
      <point x="687" y="421"/>
      <point x="687" y="340" type="curve" smooth="yes"/>
      <point x="687" y="275"/>
      <point x="682" y="187"/>
      <point x="634" y="118" type="curve" smooth="yes"/>
      <point x="587" y="51"/>
      <point x="512" y="27"/>
    </contour>
    <contour>
      <point x="622" y="439" type="line"/>
      <point x="575" y="439" type="line"/>
      <point x="575" y="405" type="line"/>
      <point x="318" y="405" type="line"/>
      <point x="318" y="439" type="line"/>
      <point x="271" y="439" type="line"/>
      <point x="271" y="250" type="line"/>
      <point x="318" y="250" type="line"/>
      <point x="318" y="284" type="line"/>
      <point x="575" y="284" type="line"/>
      <point x="575" y="250" type="line"/>
      <point x="622" y="250" type="line"/>
    </contour>
  </outline>
</glyph>
<glyph name="Lambda" format="2">
  <advance width="805"/>
  <unicode hex="039B"/>
  <outline>
    <contour>
      <point x="440" y="673" type="line" smooth="yes"/>
      <point x="434" y="690"/>
      <point x="430" y="698"/>
      <point x="403" y="698" type="curve" smooth="yes"/>
      <point x="375" y="698"/>
      <point x="372" y="690"/>
      <point x="365" y="673" type="curve" smooth="yes"/>
      <point x="134" y="70" type="line" smooth="yes"/>
      <point x="127" y="54"/>
      <point x="126" y="53"/>
      <point x="95" y="49" type="curve" smooth="yes"/>
      <point x="77" y="47"/>
      <point x="56" y="47"/>
      <point x="40" y="47" type="curve"/>
      <point x="40" y="0" type="line"/>
      <point x="72" y="1"/>
      <point x="109" y="3"/>
      <point x="148" y="3" type="curve" smooth="yes"/>
      <point x="186" y="3"/>
      <point x="241" y="3"/>
      <point x="278" y="0" type="curve"/>
      <point x="278" y="47" type="line"/>
      <point x="277" y="47"/>
      <point x="188" y="47"/>
      <point x="188" y="60" type="curve" smooth="yes"/>
      <point x="188" y="62"/>
      <point x="189" y="63"/>
      <point x="192" y="72" type="curve" smooth="yes"/>
      <point x="355" y="499" type="line"/>
      <point x="527" y="47" type="line"/>
      <point x="431" y="47" type="line"/>
      <point x="431" y="0" type="line"/>
      <point x="472" y="3"/>
      <point x="564" y="3"/>
      <point x="609" y="3" type="curve" smooth="yes"/>
      <point x="648" y="3"/>
      <point x="730" y="3"/>
      <point x="765" y="0" type="curve"/>
      <point x="765" y="47" type="line"/>
      <point x="679" y="47" type="line"/>
    </contour>
  </outline>
</glyph>
<glyph name="Xi" format="2">
  <advance width="766"/>
  <unicode hex="039E"/>
  <outline>
    <contour>
      <point x="703" y="675" type="line"/>
      <point x="63" y="675" type="line"/>
      <point x="54" y="477" type="line"/>
      <point x="101" y="477" type="line"/>
      <point x="102" y="495"/>
      <point x="103" y="537"/>
      <point x="114" y="554" type="curve" smooth="yes"/>
      <point x="120" y="563"/>
      <point x="185" y="563"/>
      <point x="196" y="563" type="curve" smooth="yes"/>
      <point x="570" y="563" type="line" smooth="yes"/>
      <point x="583" y="563"/>
      <point x="641" y="563"/>
      <point x="650" y="556" type="curve" smooth="yes"/>
      <point x="663" y="546"/>
      <point x="665" y="490"/>
      <point x="665" y="477" type="curve"/>
      <point x="712" y="477" type="line"/>
    </contour>
    <contour>
      <point x="57" y="0" type="line"/>
      <point x="709" y="0" type="line"/>
      <point x="718" y="209" type="line"/>
      <point x="671" y="209" type="line"/>
      <point x="669" y="169"/>
      <point x="667" y="135"/>
      <point x="657" y="121" type="curve"/>
      <point x="649" y="112"/>
      <point x="576" y="112"/>
      <point x="571" y="112" type="curve" smooth="yes"/>
      <point x="195" y="112" type="line" smooth="yes"/>
      <point x="169" y="112"/>
      <point x="116" y="112"/>
      <point x="108" y="124" type="curve" smooth="yes"/>
      <point x="99" y="138"/>
      <point x="97" y="174"/>
      <point x="95" y="209" type="curve"/>
      <point x="48" y="209" type="line"/>
    </contour>
    <contour>
      <point x="606" y="454" type="line"/>
      <point x="559" y="454" type="line"/>
      <point x="559" y="407" type="line"/>
      <point x="207" y="407" type="line"/>
      <point x="207" y="454" type="line"/>
      <point x="160" y="454" type="line"/>
      <point x="160" y="248" type="line"/>
      <point x="207" y="248" type="line"/>
      <point x="207" y="295" type="line"/>
      <point x="559" y="295" type="line"/>
      <point x="559" y="248" type="line"/>
      <point x="606" y="248" type="line"/>
    </contour>
  </outline>
</glyph>
<glyph name="Pi" format="2">
  <advance width="900"/>
  <unicode hex="03A0"/>
  <outline>
    <contour>
      <point x="752" y="633" type="line"/>
      <point x="860" y="633" type="line"/>
      <point x="860" y="680" type="line"/>
      <point x="39" y="680" type="line"/>
      <point x="39" y="633" type="line"/>
      <point x="147" y="633" type="line"/>
      <point x="147" y="47" type="line"/>
      <point x="39" y="47" type="line"/>
      <point x="39" y="0" type="line"/>
      <point x="77" y="3"/>
      <point x="175" y="3"/>
      <point x="218" y="3" type="curve" smooth="yes"/>
      <point x="261" y="3"/>
      <point x="359" y="3"/>
      <point x="397" y="0" type="curve"/>
      <point x="397" y="47" type="line"/>
      <point x="289" y="47" type="line"/>
      <point x="289" y="633" type="line"/>
      <point x="610" y="633" type="line"/>
      <point x="610" y="47" type="line"/>
      <point x="502" y="47" type="line"/>
      <point x="502" y="0" type="line"/>
      <point x="540" y="3"/>
      <point x="638" y="3"/>
      <point x="681" y="3" type="curve" smooth="yes"/>
      <point x="724" y="3"/>
      <point x="822" y="3"/>
      <point x="860" y="0" type="curve"/>
      <point x="860" y="47" type="line"/>
      <point x="752" y="47" type="line"/>
    </contour>
  </outline>
</glyph>
<glyph name="Sigma" format="2">
  <advance width="830"/>
  <unicode hex="03A3"/>
  <outline>
    <contour>
      <point x="480" y="324" type="line" smooth="yes"/>
      <point x="486" y="329"/>
      <point x="492" y="334"/>
      <point x="492" y="343" type="curve" smooth="yes"/>
      <point x="492" y="349"/>
      <point x="488" y="354"/>
      <point x="485" y="358" type="curve" smooth="yes"/>
      <point x="257" y="639" type="line"/>
      <point x="461" y="639" type="line" smooth="yes"/>
      <point x="609" y="639"/>
      <point x="697" y="612"/>
      <point x="719" y="445" type="curve"/>
      <point x="766" y="445" type="line"/>
      <point x="735" y="686" type="line"/>
      <point x="96" y="686" type="line" smooth="yes"/>
      <point x="76" y="686"/>
      <point x="64" y="686"/>
      <point x="64" y="662" type="curve" smooth="yes"/>
      <point x="64" y="652"/>
      <point x="64" y="650"/>
      <point x="74" y="639" type="curve"/>
      <point x="359" y="288" type="line"/>
      <point x="76" y="37" type="line" smooth="yes"/>
      <point x="70" y="32"/>
      <point x="64" y="27"/>
      <point x="64" y="18" type="curve" smooth="yes"/>
      <point x="64" y="0"/>
      <point x="81" y="0"/>
      <point x="96" y="0" type="curve" smooth="yes"/>
      <point x="735" y="0" type="line"/>
      <point x="766" y="260" type="line"/>
      <point x="719" y="260" type="line"/>
      <point x="698" y="87"/>
      <point x="598" y="66"/>
      <point x="458" y="66" type="curve" smooth="yes"/>
      <point x="189" y="66" type="line"/>
    </contour>
  </outline>
</glyph>
<glyph name="Upsilon" format="2">
  <advance width="894"/>
  <unicode hex="03A5"/>
  <outline>
    <contour>
      <point x="518" y="345" type="line" smooth="yes"/>
      <point x="518" y="401"/>
      <point x="532" y="467"/>
      <point x="560" y="512" type="curve" smooth="yes"/>
      <point x="605" y="582"/>
      <point x="657" y="582"/>
      <point x="690" y="582" type="curve" smooth="yes"/>
      <point x="771" y="582"/>
      <point x="773" y="565"/>
      <point x="776" y="548" type="curve" smooth="yes"/>
      <point x="779" y="531"/>
      <point x="790" y="531"/>
      <point x="802" y="531" type="curve" smooth="yes"/>
      <point x="816" y="531"/>
      <point x="829" y="531"/>
      <point x="829" y="554" type="curve" smooth="yes"/>
      <point x="829" y="618"/>
      <point x="772" y="697"/>
      <point x="676" y="697" type="curve" smooth="yes"/>
      <point x="585" y="697"/>
      <point x="489" y="635"/>
      <point x="447" y="471" type="curve"/>
      <point x="446" y="471" type="line"/>
      <point x="409" y="617"/>
      <point x="323" y="697"/>
      <point x="217" y="697" type="curve" smooth="yes"/>
      <point x="121" y="697"/>
      <point x="64" y="618"/>
      <point x="64" y="554" type="curve" smooth="yes"/>
      <point x="64" y="531"/>
      <point x="77" y="531"/>
      <point x="91" y="531" type="curve" smooth="yes"/>
      <point x="106" y="531"/>
      <point x="114" y="532"/>
      <point x="117" y="551" type="curve" smooth="yes"/>
      <point x="121" y="573"/>
      <point x="139" y="582"/>
      <point x="203" y="582" type="curve" smooth="yes"/>
      <point x="234" y="582"/>
      <point x="292" y="582"/>
      <point x="335" y="509" type="curve" smooth="yes"/>
      <point x="376" y="440"/>
      <point x="376" y="360"/>
      <point x="376" y="345" type="curve" smooth="yes"/>
      <point x="376" y="47" type="line"/>
      <point x="241" y="47" type="line"/>
      <point x="241" y="0" type="line"/>
      <point x="285" y="3"/>
      <point x="397" y="3"/>
      <point x="447" y="3" type="curve" smooth="yes"/>
      <point x="497" y="3"/>
      <point x="609" y="3"/>
      <point x="653" y="0" type="curve"/>
      <point x="653" y="47" type="line"/>
      <point x="518" y="47" type="line"/>
    </contour>
  </outline>
</glyph>
<glyph name="Psi" format="2">
  <advance width="894"/>
  <unicode hex="03A8"/>
  <outline>
    <contour>
      <point x="507" y="639" type="line"/>
      <point x="642" y="639" type="line"/>
      <point x="642" y="686" type="line"/>
      <point x="598" y="683"/>
      <point x="491" y="683"/>
      <point x="442" y="683" type="curve" smooth="yes"/>
      <point x="393" y="683"/>
      <point x="285" y="683"/>
      <point x="241" y="686" type="curve"/>
      <point x="241" y="639" type="line"/>
      <point x="376" y="639" type="line"/>
      <point x="376" y="195" type="line"/>
      <point x="261" y="229"/>
      <point x="257" y="353"/>
      <point x="257" y="416" type="curve" smooth="yes"/>
      <point x="256" y="505"/>
      <point x="228" y="547"/>
      <point x="168" y="547" type="curve" smooth="yes"/>
      <point x="96" y="547" type="line" smooth="yes"/>
      <point x="81" y="547"/>
      <point x="64" y="547"/>
      <point x="64" y="529" type="curve" smooth="yes"/>
      <point x="64" y="514"/>
      <point x="76" y="512"/>
      <point x="87" y="511" type="curve"/>
      <point x="125" y="504"/>
      <point x="126" y="428"/>
      <point x="126" y="423" type="curve" smooth="yes"/>
      <point x="126" y="388"/>
      <point x="127" y="299"/>
      <point x="186" y="235" type="curve" smooth="yes"/>
      <point x="236" y="181"/>
      <point x="305" y="160"/>
      <point x="376" y="153" type="curve"/>
      <point x="376" y="47" type="line"/>
      <point x="241" y="47" type="line"/>
      <point x="241" y="0" type="line"/>
      <point x="285" y="3"/>
      <point x="392" y="3"/>
      <point x="441" y="3" type="curve" smooth="yes"/>
      <point x="490" y="3"/>
      <point x="598" y="3"/>
      <point x="642" y="0" type="curve"/>
      <point x="642" y="47" type="line"/>
      <point x="507" y="47" type="line"/>
      <point x="507" y="153" type="line"/>
      <point x="600" y="161"/>
      <point x="659" y="192"/>
      <point x="694" y="224" type="curve" smooth="yes"/>
      <point x="763" y="289"/>
      <point x="767" y="384"/>
      <point x="767" y="397" type="curve" smooth="yes"/>
      <point x="767" y="442"/>
      <point x="768" y="504"/>
      <point x="809" y="511" type="curve" smooth="yes"/>
      <point x="816" y="512"/>
      <point x="829" y="514"/>
      <point x="829" y="529" type="curve" smooth="yes"/>
      <point x="829" y="547"/>
      <point x="812" y="547"/>
      <point x="797" y="547" type="curve" smooth="yes"/>
      <point x="725" y="547" type="line" smooth="yes"/>
      <point x="691" y="547"/>
      <point x="637" y="543"/>
      <point x="636" y="405" type="curve" smooth="yes"/>
      <point x="635" y="284"/>
      <point x="592" y="217"/>
      <point x="507" y="194" type="curve"/>
    </contour>
  </outline>
</glyph>
<glyph name="emdash" format="2">
  <advance width="1150"/>
  <unicode hex="2014"/>
  <outline>
    <contour>
      <point x="1149" y="256" type="line"/>
      <point x="1149" y="292" type="line"/>
      <point x="0" y="292" type="line"/>
      <point x="0" y="256" type="line"/>
    </contour>
  </outline>
</glyph>
<glyph name="quoteleft" format="2">
  <advance width="319"/>
  <unicode hex="2018"/>
  <outline>
    <contour>
      <point x="101" y="477" type="curve"/>
      <point x="107" y="589"/>
      <point x="177" y="644"/>
      <point x="199" y="661" type="curve" smooth="yes"/>
      <point x="203" y="664"/>
      <point x="207" y="667"/>
      <point x="207" y="674" type="curve" smooth="yes"/>
      <point x="207" y="684"/>
      <point x="196" y="694"/>
      <point x="188" y="694" type="curve" smooth="yes"/>
      <point x="174" y="694"/>
      <point x="65" y="609"/>
      <point x="65" y="469" type="curve" smooth="yes"/>
      <point x="65" y="400"/>
      <point x="102" y="344"/>
      <point x="160" y="344" type="curve" smooth="yes"/>
      <point x="206" y="344"/>
      <point x="237" y="379"/>
      <point x="237" y="422" type="curve" smooth="yes"/>
      <point x="237" y="462"/>
      <point x="210" y="500"/>
      <point x="159" y="500" type="curve" smooth="yes"/>
      <point x="137" y="500"/>
      <point x="117" y="492"/>
    </contour>
  </outline>
</glyph>
<glyph name="quotedblleft" format="2">
  <advance width="602"/>
  <unicode hex="201C"/>
  <outline>
    <contour>
      <point x="176" y="477" type="curve"/>
      <point x="182" y="589"/>
      <point x="252" y="644"/>
      <point x="274" y="661" type="curve" smooth="yes"/>
      <point x="278" y="664"/>
      <point x="282" y="667"/>
      <point x="282" y="674" type="curve" smooth="yes"/>
      <point x="282" y="684"/>
      <point x="271" y="694"/>
      <point x="263" y="694" type="curve" smooth="yes"/>
      <point x="249" y="694"/>
      <point x="140" y="609"/>
      <point x="140" y="469" type="curve" smooth="yes"/>
      <point x="140" y="400"/>
      <point x="177" y="344"/>
      <point x="235" y="344" type="curve" smooth="yes"/>
      <point x="281" y="344"/>
      <point x="312" y="379"/>
      <point x="312" y="422" type="curve" smooth="yes"/>
      <point x="312" y="462"/>
      <point x="285" y="500"/>
      <point x="234" y="500" type="curve" smooth="yes"/>
      <point x="212" y="500"/>
      <point x="192" y="492"/>
    </contour>
    <contour>
      <point x="428" y="477" type="curve"/>
      <point x="434" y="589"/>
      <point x="504" y="644"/>
      <point x="526" y="661" type="curve" smooth="yes"/>
      <point x="530" y="664"/>
      <point x="534" y="667"/>
      <point x="534" y="674" type="curve" smooth="yes"/>
      <point x="534" y="684"/>
      <point x="523" y="694"/>
      <point x="515" y="694" type="curve" smooth="yes"/>
      <point x="501" y="694"/>
      <point x="392" y="609"/>
      <point x="392" y="469" type="curve" smooth="yes"/>
      <point x="392" y="400"/>
      <point x="429" y="344"/>
      <point x="487" y="344" type="curve" smooth="yes"/>
      <point x="533" y="344"/>
      <point x="564" y="379"/>
      <point x="564" y="422" type="curve" smooth="yes"/>
      <point x="564" y="462"/>
      <point x="537" y="500"/>
      <point x="486" y="500" type="curve" smooth="yes"/>
      <point x="464" y="500"/>
      <point x="444" y="492"/>
    </contour>
  </outline>
</glyph>
<glyph name="Delta" format="2">
  <advance width="958"/>
  <unicode hex="2206"/>
  <outline>
    <contour>
      <point x="524" y="673" type="line" smooth="yes"/>
      <point x="510" y="698"/>
      <point x="496" y="698"/>
      <point x="479" y="698" type="curve" smooth="yes"/>
      <point x="460" y="698"/>
      <point x="447" y="698"/>
      <point x="433" y="673" type="curve" smooth="yes"/>
      <point x="64" y="27" type="line" smooth="yes"/>
      <point x="57" y="16"/>
      <point x="57" y="14"/>
      <point x="57" y="12" type="curve" smooth="yes"/>
      <point x="57" y="0"/>
      <point x="67" y="0"/>
      <point x="83" y="0" type="curve" smooth="yes"/>
      <point x="874" y="0" type="line" smooth="yes"/>
      <point x="890" y="0"/>
      <point x="900" y="0"/>
      <point x="900" y="12" type="curve" smooth="yes"/>
      <point x="900" y="14"/>
      <point x="900" y="16"/>
      <point x="893" y="27" type="curve" smooth="yes"/>
    </contour>
    <contour>
      <point x="427" y="555" type="line"/>
      <point x="676" y="121" type="line"/>
      <point x="178" y="121" type="line"/>
    </contour>
  </outline>
</glyph>
<glyph name="ffi" format="2">
  <advance width="958"/>
  <outline>
    <contour>
      <point x="713" y="397" type="line" smooth="yes"/>
      <point x="737" y="397"/>
      <point x="743" y="397"/>
      <point x="743" y="362" type="curve" smooth="yes"/>
      <point x="743" y="47" type="line"/>
      <point x="674" y="47" type="line"/>
      <point x="674" y="0" type="line"/>
      <point x="706" y="1"/>
      <point x="754" y="3"/>
      <point x="797" y="3" type="curve" smooth="yes"/>
      <point x="840" y="3"/>
      <point x="886" y="1"/>
      <point x="920" y="0" type="curve"/>
      <point x="920" y="47" type="line"/>
      <point x="851" y="47" type="line"/>
      <point x="851" y="454" type="line"/>
      <point x="675" y="448" type="line"/>
      <point x="674" y="447"/>
      <point x="674" y="446"/>
      <point x="674" y="444" type="curve"/>
      <point x="527" y="444" type="line"/>
      <point x="527" y="542" type="line" smooth="yes"/>
      <point x="527" y="626"/>
      <point x="595" y="664"/>
      <point x="687" y="664" type="curve" smooth="yes"/>
      <point x="716" y="664"/>
      <point x="737" y="659"/>
      <point x="760" y="646" type="curve"/>
      <point x="743" y="640"/>
      <point x="716" y="623"/>
      <point x="716" y="583" type="curve" smooth="yes"/>
      <point x="716" y="544"/>
      <point x="745" y="518"/>
      <point x="781" y="518" type="curve" smooth="yes"/>
      <point x="818" y="518"/>
      <point x="847" y="543"/>
      <point x="847" y="584" type="curve" smooth="yes"/>
      <point x="847" y="636"/>
      <point x="803" y="700"/>
      <point x="693" y="700" type="curve" smooth="yes"/>
      <point x="626" y="700"/>
      <point x="553" y="690"/>
      <point x="494" y="656" type="curve"/>
      <point x="449" y="700"/>
      <point x="392" y="700"/>
      <point x="371" y="700" type="curve" smooth="yes"/>
      <point x="256" y="700"/>
      <point x="106" y="665"/>
      <point x="106" y="544" type="curve" smooth="yes"/>
      <point x="106" y="444" type="line"/>
      <point x="31" y="444" type="line"/>
      <point x="31" y="397" type="line"/>
      <point x="106" y="397" type="line"/>
      <point x="106" y="47" type="line"/>
      <point x="37" y="47" type="line"/>
      <point x="37" y="0" type="line"/>
      <point x="69" y="1"/>
      <point x="117" y="3"/>
      <point x="160" y="3" type="curve" smooth="yes"/>
      <point x="203" y="3"/>
      <point x="249" y="1"/>
      <point x="283" y="0" type="curve"/>
      <point x="283" y="47" type="line"/>
      <point x="214" y="47" type="line"/>
      <point x="214" y="397" type="line"/>
      <point x="425" y="397" type="line"/>
      <point x="425" y="47" type="line"/>
      <point x="356" y="47" type="line"/>
      <point x="356" y="0" type="line"/>
      <point x="388" y="1"/>
      <point x="436" y="3"/>
      <point x="479" y="3" type="curve" smooth="yes"/>
      <point x="522" y="3"/>
      <point x="568" y="1"/>
      <point x="602" y="0" type="curve"/>
      <point x="602" y="47" type="line"/>
      <point x="533" y="47" type="line"/>
      <point x="533" y="397" type="line"/>
    </contour>
    <contour>
      <point x="425" y="444" type="line"/>
      <point x="208" y="444" type="line"/>
      <point x="208" y="542" type="line" smooth="yes"/>
      <point x="208" y="632"/>
      <point x="285" y="664"/>
      <point x="365" y="664" type="curve" smooth="yes"/>
      <point x="386" y="664"/>
      <point x="410" y="661"/>
      <point x="437" y="646" type="curve"/>
      <point x="400" y="633"/>
      <point x="392" y="602"/>
      <point x="392" y="583" type="curve" smooth="yes"/>
      <point x="392" y="572"/>
      <point x="395" y="543"/>
      <point x="425" y="526" type="curve"/>
    </contour>
  </outline>
</glyph>
<glyph name="fi" format="2">
  <advance width="638"/>
  <outline>
    <contour>
      <point x="394" y="397" type="line" smooth="yes"/>
      <point x="418" y="397"/>
      <point x="424" y="397"/>
      <point x="424" y="362" type="curve" smooth="yes"/>
      <point x="424" y="47" type="line"/>
      <point x="355" y="47" type="line"/>
      <point x="355" y="0" type="line"/>
      <point x="387" y="1"/>
      <point x="435" y="3"/>
      <point x="478" y="3" type="curve" smooth="yes"/>
      <point x="521" y="3"/>
      <point x="567" y="1"/>
      <point x="601" y="0" type="curve"/>
      <point x="601" y="47" type="line"/>
      <point x="532" y="47" type="line"/>
      <point x="532" y="454" type="line"/>
      <point x="356" y="448" type="line"/>
      <point x="355" y="447"/>
      <point x="355" y="446"/>
      <point x="355" y="444" type="curve"/>
      <point x="208" y="444" type="line"/>
      <point x="208" y="542" type="line" smooth="yes"/>
      <point x="208" y="626"/>
      <point x="276" y="664"/>
      <point x="368" y="664" type="curve" smooth="yes"/>
      <point x="397" y="664"/>
      <point x="418" y="659"/>
      <point x="441" y="646" type="curve"/>
      <point x="424" y="640"/>
      <point x="397" y="623"/>
      <point x="397" y="583" type="curve" smooth="yes"/>
      <point x="397" y="544"/>
      <point x="426" y="518"/>
      <point x="462" y="518" type="curve" smooth="yes"/>
      <point x="499" y="518"/>
      <point x="528" y="543"/>
      <point x="528" y="584" type="curve" smooth="yes"/>
      <point x="528" y="636"/>
      <point x="484" y="700"/>
      <point x="374" y="700" type="curve" smooth="yes"/>
      <point x="250" y="700"/>
      <point x="106" y="661"/>
      <point x="106" y="544" type="curve" smooth="yes"/>
      <point x="106" y="444" type="line"/>
      <point x="31" y="444" type="line"/>
      <point x="31" y="397" type="line"/>
      <point x="106" y="397" type="line"/>
      <point x="106" y="47" type="line"/>
      <point x="37" y="47" type="line"/>
      <point x="37" y="0" type="line"/>
      <point x="69" y="1"/>
      <point x="117" y="3"/>
      <point x="160" y="3" type="curve" smooth="yes"/>
      <point x="203" y="3"/>
      <point x="249" y="1"/>
      <point x="283" y="0" type="curve"/>
      <point x="283" y="47" type="line"/>
      <point x="214" y="47" type="line"/>
      <point x="214" y="397" type="line"/>
    </contour>
  </outline>
</glyph>
